<svg width="13" height="14" viewBox="0 0 13 14" fill="none" xmlns="http://www.w3.org/2000/svg">
<g clip-path="url(#clip0)">
<path d="M9.48076 0.116699H3.51873C1.57834 0.116699 -0.000244141 1.69528 -0.000244141 3.63567V9.5978C-0.000244141 11.5381 1.57834 13.1167 3.51873 13.1167H9.48086C11.4212 13.1167 12.9997 11.5381 12.9997 9.5978V3.63567C12.9997 1.69528 11.4212 0.116699 9.48076 0.116699V0.116699ZM12.2376 9.5978C12.2376 11.1179 11.0009 12.3546 9.48076 12.3546H3.51873C1.99857 12.3546 0.76187 11.1179 0.76187 9.5978V3.63567C0.76187 2.11551 1.99857 0.878813 3.51873 0.878813H9.48086C11.0009 0.878813 12.2376 2.11551 12.2376 3.63567V9.5978Z" fill="#FFFFFF"/>
<path d="M6.49965 3.06201C4.53962 3.06201 2.94507 4.65656 2.94507 6.61659C2.94507 8.57663 4.53962 10.1712 6.49965 10.1712C8.45968 10.1712 10.0542 8.57663 10.0542 6.61659C10.0542 4.65656 8.45968 3.06201 6.49965 3.06201ZM6.49965 9.40906C4.95995 9.40906 3.70718 8.15639 3.70718 6.61659C3.70718 5.07689 4.95995 3.82413 6.49965 3.82413C8.03945 3.82413 9.29212 5.07689 9.29212 6.61659C9.29212 8.15639 8.03945 9.40906 6.49965 9.40906Z" fill="#FFFFFF"/>
<path d="M10.1392 1.7998C9.55998 1.7998 9.08887 2.27102 9.08887 2.85014C9.08887 3.42936 9.55998 3.90058 10.1392 3.90058C10.7184 3.90058 11.1896 3.42936 11.1896 2.85014C11.1896 2.27092 10.7184 1.7998 10.1392 1.7998ZM10.1392 3.13836C9.98031 3.13836 9.85098 3.00903 9.85098 2.85014C9.85098 2.69115 9.98031 2.56192 10.1392 2.56192C10.2982 2.56192 10.4275 2.69115 10.4275 2.85014C10.4275 3.00903 10.2982 3.13836 10.1392 3.13836Z" fill="#FFFFFF"/>
</g>
<defs>
<clipPath id="clip0">
<rect width="13" height="13" fill="white" transform="translate(-0.000244141 0.116699)"/>
</clipPath>
</defs>
</svg>
