<svg width="62" height="63" viewBox="0 0 62 63" fill="none" xmlns="http://www.w3.org/2000/svg">
<g filter="url(#filter0_d)">
<circle cx="30.9998" cy="27.1167" r="17" fill="white"/>
</g>
<g clip-path="url(#clip0)">
<path d="M34.4808 20.1167H28.5187C26.5783 20.1167 24.9998 21.6953 24.9998 23.6357V29.5978C24.9998 31.5381 26.5783 33.1167 28.5187 33.1167H34.4809C36.4212 33.1167 37.9997 31.5381 37.9997 29.5978V23.6357C37.9997 21.6953 36.4212 20.1167 34.4808 20.1167V20.1167ZM37.2376 29.5978C37.2376 31.1179 36.0009 32.3546 34.4808 32.3546H28.5187C26.9986 32.3546 25.7619 31.1179 25.7619 29.5978V23.6357C25.7619 22.1155 26.9986 20.8788 28.5187 20.8788H34.4809C36.0009 20.8788 37.2376 22.1155 37.2376 23.6357V29.5978Z" fill="#0438AF"/>
<path d="M31.4996 23.062C29.5396 23.062 27.9451 24.6566 27.9451 26.6166C27.9451 28.5766 29.5396 30.1712 31.4996 30.1712C33.4597 30.1712 35.0542 28.5766 35.0542 26.6166C35.0542 24.6566 33.4597 23.062 31.4996 23.062ZM31.4996 29.4091C29.9599 29.4091 28.7072 28.1564 28.7072 26.6166C28.7072 25.0769 29.9599 23.8241 31.4996 23.8241C33.0394 23.8241 34.2921 25.0769 34.2921 26.6166C34.2921 28.1564 33.0394 29.4091 31.4996 29.4091Z" fill="#0438AF"/>
<path d="M35.1392 21.7998C34.56 21.7998 34.0889 22.271 34.0889 22.8501C34.0889 23.4294 34.56 23.9006 35.1392 23.9006C35.7184 23.9006 36.1896 23.4294 36.1896 22.8501C36.1896 22.2709 35.7184 21.7998 35.1392 21.7998ZM35.1392 23.1384C34.9803 23.1384 34.851 23.009 34.851 22.8501C34.851 22.6912 34.9803 22.5619 35.1392 22.5619C35.2982 22.5619 35.4275 22.6912 35.4275 22.8501C35.4275 23.009 35.2982 23.1384 35.1392 23.1384Z" fill="#0438AF"/>
</g>
<defs>
<filter id="filter0_d" x="-0.000244141" y="0.116699" width="62" height="62" filterUnits="userSpaceOnUse" color-interpolation-filters="sRGB">
<feFlood flood-opacity="0" result="BackgroundImageFix"/>
<feColorMatrix in="SourceAlpha" type="matrix" values="0 0 0 0 0 0 0 0 0 0 0 0 0 0 0 0 0 0 127 0" result="hardAlpha"/>
<feOffset dy="4"/>
<feGaussianBlur stdDeviation="7"/>
<feColorMatrix type="matrix" values="0 0 0 0 0 0 0 0 0 0 0 0 0 0 0 0 0 0 0.15 0"/>
<feBlend mode="normal" in2="BackgroundImageFix" result="effect1_dropShadow"/>
<feBlend mode="normal" in="SourceGraphic" in2="effect1_dropShadow" result="shape"/>
</filter>
<clipPath id="clip0">
<rect width="13" height="13" fill="white" transform="translate(24.9998 20.1167)"/>
</clipPath>
</defs>
</svg>
