<svg width="365" height="364" viewBox="0 0 365 364" fill="none" xmlns="http://www.w3.org/2000/svg">
<rect width="364" height="364" rx="81" fill="white"/>
<path fill-rule="evenodd" clip-rule="evenodd" d="M71.5123 0.948277C53.3873 3.10528 37.8523 10.3003 25.0853 22.4493C10.2393 36.5773 2.98225 52.5153 1.08525 75.1603C-0.36175 92.4333 -0.36175 271.279 1.08525 288.552C2.97325 311.096 9.50326 325.605 24.4093 340.378C37.8673 353.716 52.5753 360.523 72.9883 362.863C84.3183 364.161 279.706 364.161 291.036 362.863C311.449 360.523 326.157 353.716 339.615 340.378C354.464 325.661 360.878 311.388 362.887 288.587C364.386 271.577 364.43 92.9483 362.939 75.1603C361.042 52.5153 353.785 36.5773 338.939 22.4493C325.762 9.91028 310.655 3.09827 291.036 0.84927C280.636 -0.34273 81.6063 -0.252723 71.5123 0.948277ZM193.197 66.8683C242.664 72.5363 280.811 104.691 294.616 152.356C297.381 161.903 297.512 163.262 297.512 182.356C297.512 201.45 297.381 202.809 294.616 212.356C290.835 225.411 283.644 240.397 276.423 250.27L270.635 258.184L267.45 254.5C263.105 249.473 254.876 232.412 251.157 220.719C247.543 209.355 246.03 200.828 246.02 191.762C246.013 185.719 246.345 184.676 250.005 179.262C252.201 176.014 258.332 168.631 263.629 162.856C272.421 153.272 277.977 144.757 278.002 140.829C278.008 139.988 277.293 138.275 276.415 137.021C273.914 133.45 270.213 134.495 266.377 139.856C257.625 152.087 247.275 160.609 239.984 161.587C236.394 162.068 236.061 161.9 235.404 159.28C234.832 157.003 235.694 154.581 239.853 146.783C242.691 141.463 245.012 136.301 245.012 135.312C245.012 132.046 241.997 129.856 237.501 129.856C231.779 129.856 225.15 134.932 221.62 142.016C218.558 148.16 218.471 149.465 220.663 156.417C222.242 161.428 222.23 161.799 220.367 164.988C215.869 172.689 203.405 177.553 190.64 176.587C178.604 175.677 174.769 172.656 170.916 161.052C166.309 147.176 163.221 141.644 156.466 135.172C148.608 127.642 148.214 125.2 153.513 116.856C160.583 105.722 162.051 99.0183 157.907 96.8003C153.15 94.2543 142.186 99.6133 137.421 106.814C134.894 110.633 134.763 111.388 135.258 119.31C135.864 129.03 135.238 130.769 128.558 137.91C123.247 143.589 122.256 146.829 121.021 162.575C120.494 169.295 118.926 179.277 117.537 184.756C114.368 197.258 114.376 201.784 117.594 216.526C121.872 236.124 121.945 254.671 117.812 271.606C117.062 274.68 116.268 275.856 114.945 275.856C112.404 275.856 96.2023 260.202 89.4313 251.206C74.5463 231.427 67.0123 208.292 67.0123 182.356C67.0123 149.736 78.8723 121.714 102.169 99.2883C117.961 84.0873 134.331 74.9223 154.567 69.9523C169.954 66.1733 180.082 65.3653 193.197 66.8683ZM194.264 192.516C206.424 197.216 209.024 201.865 212.914 225.862C218.794 262.138 220.445 285.366 217.446 289.647C213.954 294.632 202.828 297.737 187.012 298.14C170.86 298.551 167.579 293.648 165.837 266.495C164.636 247.788 165.299 212.73 166.996 205.143C170.083 191.34 179.701 186.887 194.264 192.516ZM143.561 236.29C147.357 242.083 150.684 280.259 148.081 288.146C146.763 292.14 145.982 292.439 141.212 290.776C137.207 289.38 136.102 286.021 135.079 272.13C134.316 261.77 135.138 243.268 136.569 238.6C138.17 233.375 141.032 232.43 143.561 236.29ZM240.367 237.921C246.015 242.364 255.012 261.442 255.012 268.977C255.012 272.568 254.558 273.194 248.98 277.301C241.083 283.114 239.119 283.706 236.884 280.946C232 274.915 229.415 244.479 233.285 238.565C235.411 235.316 236.886 235.182 240.367 237.921Z" fill="#F14635"/>
</svg>
