<svg width="773" height="773" viewBox="0 0 773 773" fill="none" xmlns="http://www.w3.org/2000/svg">
<path d="M0 0H773V773H0V0Z" fill="#1F96F4"/>
<path d="M46.0411 262.033C44.3615 251.116 51.8502 240.904 62.7674 239.224L343.465 196.041C354.382 194.362 364.594 201.85 366.274 212.767L392.624 384.047C394.303 394.964 386.815 405.175 375.897 406.855L192.591 435.056L109.487 531.519L126.201 445.269L95.1997 450.038C84.2824 451.718 74.0707 444.229 72.3912 433.312L46.0411 262.033Z" fill="white"/>
<path d="M175.982 345.566C176.677 345.459 177.317 345.62 177.901 346.048C178.485 346.476 178.831 347.038 178.938 347.734L181.142 362.061C181.249 362.757 181.088 363.397 180.66 363.981C180.232 364.565 179.67 364.91 178.974 365.017L124.795 373.352C124.1 373.459 123.46 373.299 122.876 372.871C122.292 372.443 121.946 371.881 121.839 371.185L119.737 357.521C119.543 356.256 119.847 355.076 120.65 353.982L142.969 322.283L118.015 326.122C117.319 326.229 116.679 326.069 116.095 325.641C115.512 325.212 115.166 324.65 115.059 323.955L112.884 309.817C112.777 309.121 112.938 308.481 113.366 307.897C113.794 307.313 114.356 306.968 115.052 306.861L167.522 298.789C168.218 298.682 168.858 298.842 169.442 299.27C170.026 299.699 170.371 300.261 170.478 300.956L172.551 314.43C172.746 315.695 172.495 316.802 171.799 317.751L150.932 349.42L175.982 345.566ZM202.52 293.405L223.11 290.237C225.387 289.887 226.971 290.711 227.861 292.711L258.333 349.992C258.426 350.172 258.506 350.483 258.574 350.926C258.632 351.306 258.474 351.751 258.1 352.262C257.778 352.7 257.333 352.962 256.764 353.05L239.21 355.751C237.313 356.042 235.958 355.442 235.145 353.948L231.904 348.036L211.504 351.174L210.191 357.787C209.865 359.456 208.753 360.436 206.855 360.728L189.302 363.429C188.732 363.516 188.197 363.404 187.696 363.093C187.248 362.708 186.995 362.327 186.937 361.947C186.869 361.504 186.852 361.183 186.886 360.984L198.732 297.193C198.98 295.018 200.243 293.755 202.52 293.405ZM213.497 331.927L224.219 330.278L216.095 313.462L213.497 331.927ZM309.469 276.951L324.46 274.645C325.156 274.538 325.796 274.698 326.38 275.127C326.964 275.555 327.309 276.117 327.416 276.813L336.846 338.107C336.953 338.803 336.792 339.443 336.364 340.027C335.936 340.611 335.374 340.956 334.678 341.063L317.504 343.706C316.808 343.813 316.169 343.652 315.585 343.224C315.001 342.796 314.655 342.234 314.548 341.538L310.549 315.54L305.863 326.751C305.094 328.488 304.045 329.458 302.717 329.663L296.075 330.685C294.747 330.889 293.455 330.278 292.2 328.853L284.361 319.569L288.36 345.567C288.467 346.262 288.307 346.902 287.879 347.486C287.45 348.07 286.888 348.416 286.193 348.523L269.019 351.165C268.323 351.272 267.683 351.111 267.099 350.683C266.515 350.255 266.17 349.693 266.063 348.997L256.633 287.702C256.526 287.006 256.686 286.366 257.115 285.783C257.543 285.199 258.105 284.853 258.801 284.746L273.792 282.44C275.563 282.167 277.055 282.812 278.266 284.374L295.528 305.029L305.783 280.141C306.469 278.287 307.697 277.224 309.469 276.951Z" fill="#1F96F4"/>
<path d="M720.473 394.183C717.297 437.988 686.702 475.086 641.365 497.628C623.145 506.687 701.428 574.008 679.269 577.856C659.159 581.348 538.882 521.872 516.821 520.272C409.958 512.523 327.878 443.507 333.49 366.12C339.101 288.734 430.28 232.282 537.142 240.031C644.005 247.78 726.085 316.796 720.473 394.183Z" fill="#7B48E8"/>
<path d="M473.721 395.413C474.422 395.474 475.006 395.782 475.471 396.337C475.937 396.891 476.139 397.519 476.078 398.22L474.82 412.662C474.759 413.363 474.451 413.947 473.896 414.412C473.342 414.878 472.714 415.08 472.012 415.019L417.403 410.26C416.702 410.199 416.119 409.891 415.653 409.337C415.187 408.782 414.985 408.154 415.046 407.453L416.246 393.681C416.357 392.406 416.933 391.332 417.973 390.459L447.176 364.962L422.024 362.77C421.322 362.709 420.739 362.401 420.273 361.847C419.808 361.292 419.605 360.664 419.666 359.963L420.908 345.713C420.969 345.011 421.277 344.428 421.832 343.962C422.386 343.497 423.014 343.295 423.715 343.356L476.603 347.964C477.304 348.025 477.888 348.333 478.353 348.888C478.819 349.442 479.021 350.07 478.96 350.772L477.777 364.352C477.666 365.627 477.16 366.643 476.258 367.4L448.473 393.213L473.721 395.413ZM511.878 351.038L532.632 352.847C534.927 353.047 536.27 354.224 536.66 356.378L552.67 419.253C552.718 419.45 552.722 419.771 552.683 420.218C552.649 420.6 552.39 420.995 551.905 421.403C551.489 421.752 550.994 421.901 550.42 421.851L532.727 420.31C530.815 420.143 529.641 419.238 529.206 417.594L527.461 411.082L506.899 409.29L504.053 415.402C503.34 416.946 502.028 417.634 500.115 417.468L482.422 415.926C481.848 415.876 481.355 415.64 480.942 415.219C480.598 414.739 480.443 414.308 480.476 413.926C480.515 413.479 480.575 413.163 480.655 412.978L507.3 353.819C508.057 351.765 509.583 350.838 511.878 351.038ZM513.401 391.066L524.208 392.007L520.307 373.744L513.401 391.066ZM619.677 360.432L634.787 361.749C635.489 361.81 636.072 362.117 636.538 362.672C637.004 363.227 637.206 363.854 637.145 364.556L631.761 426.338C631.7 427.039 631.392 427.622 630.838 428.088C630.283 428.554 629.655 428.756 628.954 428.695L611.643 427.186C610.942 427.125 610.359 426.818 609.893 426.263C609.427 425.708 609.225 425.081 609.286 424.379L611.57 398.175L604.358 407.953C603.198 409.458 601.949 410.153 600.611 410.036L593.916 409.453C592.577 409.336 591.467 408.436 590.586 406.753L585.174 395.874L582.89 422.079C582.829 422.78 582.521 423.364 581.967 423.829C581.412 424.295 580.784 424.497 580.083 424.436L562.773 422.928C562.071 422.867 561.488 422.559 561.022 422.004C560.556 421.45 560.354 420.822 560.415 420.121L565.799 358.339C565.86 357.637 566.168 357.054 566.723 356.588C567.277 356.123 567.905 355.92 568.606 355.982L583.717 357.298C585.502 357.454 586.798 358.434 587.604 360.239L599.472 384.4L615.339 362.656C616.446 361.018 617.892 360.276 619.677 360.432Z" fill="white"/>
</svg>
